<svg width="610" height="230" xmlns="http://www.w3.org/2000/svg"><path d="M568.912 29.025c7.393 0 12.266 5.147 12.266 12.003v147.945c0 6.855-4.873 12.003-12.266 12.003H93.684c-5.93 0-9.143-.8-13.087-4.457-5.988-5.554-41.146-42.368-46.438-48.017-3.82-4.078-5.2-6.126-5.2-11.811V41.028c0-6.855 4.874-12.003 12.266-12.003h527.687z" fill="#fff" stroke="#000" stroke-width="12.145"/><path d="M120.948 103.042v52.345h21.078V125.25H502.89v30.138h21.079v-52.345z" fill="gray" stroke="#000" stroke-width="8.75"/><g stroke-width="1.174"><path d="M188.692 32.719v13.017h36.332V32.72zM384.41 32.719v13.017h36.332V32.72zM188.692 184.264v13.018h36.332v-13.018zM384.41 184.264v13.018h36.332v-13.018z"/></g><g fill="#fcee21" stroke="#000" stroke-width="2.676"><path d="M178.582 98.481h16.169v9.229h-16.169zM484.065 98.481h16.169v9.229h-16.169zM212.525 98.481h16.169v9.229h-16.169zM246.467 98.481h16.169v9.229h-16.169zM280.41 98.481h16.169v9.229H280.41zM314.352 98.481h16.169v9.229h-16.169zM348.295 98.481h16.169v9.229h-16.169zM382.237 98.481h16.169v9.229h-16.169zM416.18 98.481h16.169v9.229H416.18zM450.122 98.481h16.169v9.229h-16.169zM161.553 120.645h16.169v9.229h-16.169zM467.035 120.645h16.169v9.229h-16.169zM195.495 120.645h16.169v9.229h-16.169zM229.437 120.645h16.169v9.229h-16.169zM263.38 120.645h16.169v9.229H263.38zM297.322 120.645h16.169v9.229h-16.169zM331.265 120.645h16.169v9.229h-16.169zM365.207 120.645h16.169v9.229h-16.169zM399.15 120.645h16.169v9.229H399.15zM433.092 120.645h16.169v9.229h-16.169z"/></g><g aria-label="19"><path d="M183.082 88.947h-1.523V79.24q-.55.525-1.448 1.05-.888.525-1.6.787v-1.473q1.279-.6 2.235-1.455.956-.855 1.354-1.66h.982zM186.891 86.078l1.464-.135q.186 1.032.711 1.498.525.465 1.346.465.702 0 1.227-.321.533-.322.872-.855.338-.542.567-1.456.228-.914.228-1.862 0-.102-.008-.305-.457.728-1.252 1.185-.787.449-1.71.449-1.54 0-2.607-1.117-1.066-1.118-1.066-2.946 0-1.887 1.109-3.038 1.117-1.151 2.793-1.151 1.21 0 2.209.652 1.007.651 1.523 1.861.525 1.202.525 3.487 0 2.379-.516 3.792-.517 1.405-1.54 2.141-1.016.737-2.388.737-1.455 0-2.378-.804-.922-.813-1.109-2.277zm6.238-5.476q0-1.312-.703-2.082-.694-.77-1.676-.77-1.015 0-1.769.83-.753.829-.753 2.149 0 1.185.711 1.93.72.736 1.77.736 1.057 0 1.734-.736.686-.745.686-2.057z"/></g><g aria-label="17"><path d="M217.037 89.142h-1.523v-9.707q-.55.524-1.448 1.05-.888.524-1.6.786V79.8q1.279-.601 2.235-1.456t1.354-1.659h.982zM220.719 78.36v-1.464h8.032v1.185q-1.185 1.26-2.353 3.351-1.16 2.09-1.794 4.3-.457 1.557-.584 3.41h-1.566q.025-1.464.576-3.537.55-2.074 1.574-3.995 1.032-1.93 2.192-3.25z"/></g><g aria-label="15"><path d="M250.933 88.947h-1.523V79.24q-.55.525-1.448 1.05-.888.525-1.6.787v-1.473q1.279-.6 2.235-1.455.956-.855 1.354-1.66h.982zM254.513 85.697l1.6-.135q.177 1.168.82 1.76.652.584 1.566.584 1.1 0 1.862-.83t.762-2.2q0-1.303-.736-2.056-.728-.754-1.913-.754-.736 0-1.329.339-.592.33-.93.863l-1.431-.186 1.202-6.373h6.17v1.456h-4.952l-.668 3.334q1.117-.778 2.344-.778 1.625 0 2.742 1.125 1.118 1.126 1.118 2.895 0 1.684-.982 2.911-1.194 1.507-3.259 1.507-1.692 0-2.767-.948-1.067-.948-1.219-2.514z"/></g><g aria-label="13"><path d="M284.922 88.94h-1.523v-9.708q-.55.524-1.448 1.05-.888.524-1.6.786v-1.472q1.279-.601 2.235-1.456t1.354-1.659h.982zM288.511 85.664l1.523-.203q.263 1.295.89 1.87.634.567 1.54.567 1.074 0 1.81-.745.745-.744.745-1.845 0-1.05-.685-1.726-.686-.686-1.744-.686-.431 0-1.074.17l.169-1.338q.152.017.245.017.974 0 1.752-.508.779-.507.779-1.565 0-.838-.567-1.388-.567-.55-1.464-.55-.89 0-1.482.558t-.761 1.676l-1.524-.27q.28-1.533 1.27-2.37.99-.847 2.463-.847 1.015 0 1.87.44.855.432 1.304 1.185.457.753.457 1.6 0 .804-.432 1.464t-1.278 1.05q1.1.253 1.71 1.057.609.796.609 1.998 0 1.625-1.185 2.759-1.185 1.125-2.996 1.125-1.633 0-2.717-.973-1.075-.973-1.227-2.522z"/></g><g aria-label="11"><path d="M319.499 89.142h-1.523v-9.707q-.55.524-1.448 1.05-.888.524-1.6.786V79.8q1.279-.601 2.235-1.456t1.354-1.659h.982zM327.861 89.142h-1.523v-9.707q-.55.524-1.448 1.05-.888.524-1.6.786V79.8q1.279-.601 2.235-1.456t1.354-1.659h.982z"/></g><path d="m352.528 86.078 1.464-.135q.186 1.032.711 1.498.525.465 1.346.465.702 0 1.227-.321.533-.322.872-.855.338-.542.567-1.456.228-.914.228-1.862 0-.102-.008-.305-.457.728-1.252 1.185-.787.449-1.71.449-1.54 0-2.607-1.117-1.066-1.118-1.066-2.946 0-1.887 1.109-3.038 1.117-1.151 2.793-1.151 1.21 0 2.209.652 1.007.651 1.523 1.861.525 1.202.525 3.487 0 2.379-.516 3.792-.517 1.405-1.54 2.141-1.016.737-2.388.737-1.455 0-2.378-.804-.922-.813-1.109-2.277zm6.238-5.476q0-1.312-.703-2.082-.694-.77-1.676-.77-1.015 0-1.769.83-.753.829-.753 2.149 0 1.185.711 1.93.72.736 1.77.736 1.057 0 1.734-.736.686-.745.686-2.057z" aria-label="9"/><path d="M386.306 78.36v-1.464h8.032v1.185q-1.185 1.26-2.353 3.351-1.16 2.09-1.794 4.3-.457 1.557-.584 3.41h-1.566q.025-1.464.576-3.537.55-2.074 1.574-3.995 1.032-1.93 2.192-3.25z" aria-label="7"/><path d="m420.151 85.697 1.6-.135q.177 1.168.82 1.76.652.584 1.566.584 1.1 0 1.862-.83t.762-2.2q0-1.303-.736-2.056-.728-.754-1.913-.754-.736 0-1.329.339-.592.33-.93.863l-1.431-.186 1.202-6.373h6.17v1.456h-4.952l-.668 3.334q1.117-.778 2.344-.778 1.625 0 2.742 1.125t1.118 2.895q0 1.684-.982 2.911-1.194 1.507-3.259 1.507-1.692 0-2.767-.948-1.067-.948-1.219-2.514z" aria-label="5"/><path d="m454.144 85.664 1.523-.203q.263 1.295.89 1.87.634.567 1.54.567 1.074 0 1.81-.745.745-.744.745-1.845 0-1.05-.685-1.726-.686-.686-1.744-.686-.431 0-1.074.17l.169-1.338q.152.017.245.017.974 0 1.752-.508.779-.507.779-1.565 0-.838-.567-1.388-.567-.55-1.464-.55-.89 0-1.482.558t-.761 1.676l-1.524-.27q.28-1.533 1.27-2.37.99-.847 2.463-.847 1.015 0 1.87.44.855.432 1.304 1.185.457.753.457 1.6 0 .804-.432 1.464t-1.278 1.05q1.1.253 1.71 1.057.609.796.609 1.998 0 1.625-1.185 2.759-1.185 1.125-2.996 1.125-1.633 0-2.717-.973-1.075-.973-1.227-2.522z" aria-label="3"/><path d="M493.392 89.142h-1.523v-9.707q-.55.524-1.448 1.05-.888.524-1.6.786V79.8q1.279-.601 2.235-1.456t1.354-1.659h.982z" aria-label="1"/><g aria-label="18"><path d="M199.995 151.671h-1.523v-9.708q-.55.525-1.448 1.05-.888.525-1.6.787v-1.473q1.279-.6 2.235-1.455.956-.855 1.354-1.66h.982zM205.92 144.942q-.948-.347-1.405-.99-.457-.643-.457-1.54 0-1.355.973-2.277.974-.923 2.59-.923 1.625 0 2.615.948.99.94.99 2.294 0 .863-.456 1.506-.449.635-1.371.982 1.142.372 1.735 1.202.6.83.6 1.98 0 1.591-1.125 2.675-1.126 1.083-2.962 1.083-1.837 0-2.963-1.083-1.125-1.092-1.125-2.717 0-1.21.609-2.023.618-.82 1.752-1.117zm-.305-2.581q0 .88.567 1.438.567.559 1.473.559.88 0 1.439-.55.567-.559.567-1.363 0-.838-.584-1.405-.576-.575-1.439-.575-.872 0-1.447.558-.576.559-.576 1.338zm-.49 5.73q0 .651.304 1.26.313.61.923.948.609.33 1.311.33 1.092 0 1.803-.702.711-.702.711-1.786 0-1.1-.736-1.82-.728-.719-1.828-.719-1.075 0-1.786.711-.703.711-.703 1.777z"/></g><g aria-label="16"><path d="M233.955 151.671h-1.523v-9.708q-.55.525-1.448 1.05-.888.525-1.6.787v-1.473q1.279-.6 2.235-1.455.956-.855 1.354-1.66h.982zM245.44 142.302l-1.515.118q-.203-.897-.575-1.303-.618-.652-1.524-.652-.728 0-1.278.407-.72.524-1.134 1.532-.415 1.007-.432 2.869.55-.838 1.346-1.244.796-.407 1.667-.407 1.524 0 2.59 1.126 1.075 1.117 1.075 2.895 0 1.167-.508 2.175-.5.998-1.38 1.532-.88.533-1.997.533-1.904 0-3.106-1.397-1.202-1.405-1.202-4.62 0-3.598 1.33-5.231 1.159-1.422 3.122-1.422 1.464 0 2.395.82.94.822 1.126 2.269zm-6.22 5.349q0 .787.33 1.506.338.72.939 1.1.6.373 1.26.373.966 0 1.66-.779.694-.778.694-2.115 0-1.287-.686-2.023-.685-.745-1.726-.745-1.033 0-1.752.745-.72.736-.72 1.938z"/></g><g aria-label="14"><path d="M267.918 151.671h-1.523v-9.708q-.55.525-1.448 1.05-.888.525-1.6.787v-1.473q1.279-.6 2.235-1.455.956-.855 1.354-1.66h.982zM276.382 151.671v-2.97h-5.383v-1.397l5.662-8.04h1.244v8.04h1.676v1.396h-1.676v2.971zm0-4.367v-5.595l-3.885 5.595z"/></g><g aria-label="12"><path d="M301.899 151.671h-1.523v-9.708q-.55.525-1.448 1.05-.888.525-1.6.787v-1.473q1.279-.6 2.235-1.455.956-.855 1.354-1.66h.982zM313.485 150.207v1.464h-8.201q-.017-.55.178-1.058.313-.838.998-1.65.694-.813 1.998-1.879 2.022-1.659 2.733-2.624.711-.973.711-1.836 0-.906-.651-1.524-.644-.626-1.685-.626-1.1 0-1.76.66-.66.66-.669 1.828l-1.565-.16q.16-1.753 1.21-2.667 1.05-.922 2.818-.922 1.786 0 2.827.99t1.041 2.455q0 .744-.305 1.464-.304.72-1.015 1.515-.703.795-2.345 2.183-1.37 1.151-1.76 1.566-.39.406-.643.821z"/></g><g aria-label="10"><path d="M335.799 151.671h-1.523v-9.708q-.55.525-1.448 1.05-.888.525-1.6.787v-1.473q1.279-.6 2.235-1.455.956-.855 1.354-1.66h.982zM339.379 145.552q0-2.2.449-3.538.457-1.345 1.345-2.073.897-.728 2.252-.728.998 0 1.752.406.753.398 1.244 1.16.49.753.77 1.845.28 1.083.28 2.928 0 2.184-.45 3.53-.448 1.337-1.345 2.073-.889.728-2.251.728-1.795 0-2.819-1.287-1.227-1.549-1.227-5.044zm1.566 0q0 3.055.71 4.071.72 1.007 1.77 1.007t1.76-1.016q.72-1.015.72-4.062 0-3.064-.72-4.071-.71-1.007-1.777-1.007-1.05 0-1.676.889-.787 1.134-.787 4.189z"/></g><path d="M371.565 144.942q-.948-.347-1.405-.99t-.457-1.54q0-1.355.973-2.277.974-.923 2.59-.923 1.625 0 2.615.948.99.94.99 2.294 0 .863-.456 1.506-.449.635-1.371.982 1.142.372 1.735 1.202.6.83.6 1.98 0 1.591-1.125 2.675-1.126 1.083-2.962 1.083t-2.963-1.083q-1.125-1.092-1.125-2.717 0-1.21.609-2.023.618-.82 1.752-1.117zm-.305-2.581q0 .88.567 1.438.567.559 1.473.559.88 0 1.439-.55.567-.559.567-1.363 0-.838-.584-1.405-.576-.575-1.439-.575-.872 0-1.447.558-.576.559-.576 1.338zm-.49 5.73q0 .651.304 1.26.313.61.923.948.609.33 1.311.33 1.092 0 1.803-.702.711-.702.711-1.786 0-1.1-.736-1.82-.728-.719-1.828-.719-1.075 0-1.786.711-.703.711-.703 1.777z" aria-label="8"/><path d="m411.111 142.302-1.515.118q-.203-.897-.575-1.303-.618-.652-1.524-.652-.728 0-1.278.407-.72.524-1.134 1.532-.415 1.007-.432 2.869.55-.838 1.346-1.244t1.667-.407q1.524 0 2.59 1.126 1.075 1.117 1.075 2.895 0 1.167-.508 2.175-.5.998-1.38 1.532-.88.533-1.997.533-1.904 0-3.106-1.397-1.202-1.405-1.202-4.62 0-3.598 1.33-5.231 1.159-1.422 3.122-1.422 1.464 0 2.395.82.94.822 1.126 2.269zm-6.22 5.349q0 .787.33 1.506.338.72.939 1.1.6.373 1.26.373.966 0 1.66-.779.694-.778.694-2.115 0-1.287-.686-2.023-.685-.745-1.726-.745-1.033 0-1.752.745-.72.736-.72 1.938z" aria-label="6"/><path d="M442.269 151.62v-2.97h-5.383v-1.397l5.662-8.04h1.244v8.04h1.676v1.396h-1.676v2.971zm0-4.367v-5.595l-3.885 5.595z" aria-label="4"/><path d="M479.221 150.207v1.464h-8.201q-.017-.55.178-1.058.313-.838.998-1.65.694-.813 1.998-1.879 2.022-1.659 2.733-2.624.711-.973.711-1.836 0-.906-.651-1.524-.644-.626-1.685-.626-1.1 0-1.76.66-.66.66-.669 1.828l-1.565-.16q.16-1.753 1.21-2.667 1.05-.922 2.818-.922 1.786 0 2.827.99t1.041 2.455q0 .744-.305 1.464t-1.015 1.515q-.703.795-2.345 2.183-1.37 1.151-1.76 1.566-.39.406-.643.821z" aria-label="2"/><g aria-label="20"><path d="M168.872 150.207v1.464h-8.201q-.017-.55.178-1.058.313-.838.998-1.65.694-.813 1.998-1.879 2.022-1.659 2.733-2.624.711-.973.711-1.836 0-.906-.651-1.524-.644-.626-1.685-.626-1.1 0-1.76.66-.66.66-.669 1.828l-1.565-.16q.16-1.753 1.21-2.667 1.05-.922 2.818-.922 1.786 0 2.827.99t1.041 2.455q0 .744-.305 1.464-.304.72-1.015 1.515-.703.795-2.345 2.183-1.37 1.151-1.76 1.566-.39.406-.643.821zM170.514 145.552q0-2.2.449-3.538.457-1.345 1.345-2.073.897-.728 2.252-.728.998 0 1.752.406.753.398 1.244 1.16.49.753.77 1.845.28 1.083.28 2.928 0 2.184-.45 3.53-.448 1.337-1.345 2.073-.889.728-2.251.728-1.795 0-2.819-1.287-1.227-1.549-1.227-5.044zm1.566 0q0 3.055.71 4.071.72 1.007 1.77 1.007t1.76-1.016q.72-1.015.72-4.062 0-3.064-.72-4.071-.71-1.007-1.777-1.007-1.05 0-1.676.889-.787 1.134-.787 4.189z"/></g></svg>