<svg width="224" height="92" xmlns="http://www.w3.org/2000/svg"><path d="M19.733 10.388c-5.722 0-9.962 4.85-9.962 10.31v30.087c0 5.537 3.459 8.543 6.354 9.575l6.021 2.147c2.761.868 3.696 1.841 5.382 3.757l10.166 11.55c1.892 2.15 4.823 3.802 8.413 3.802h131.796c3.59 0 6.521-1.653 8.413-3.802l10.166-11.55c1.687-1.916 2.62-2.889 5.382-3.757l6.02-2.147c2.896-1.032 6.355-4.038 6.355-9.575V20.698c0-5.46-4.24-10.31-9.962-10.31z" fill="#fff" stroke="#000" stroke-width="5.988"/><g stroke="#000" stroke-width="1.006"><path d="M46.726 51.518c-.805 0-1.228-.054-1.993-.305l-7.83-2.566c-.587-.192-1.018-.864-1.018-1.481v-5.602c0-.618.771-1.25 1.388-1.25h149.453c.618 0 1.39.632 1.39 1.25v5.602c0 .617-.433 1.29-1.02 1.481l-7.83 2.566c-.764.25-1.187.305-1.992.305H46.726z" fill="#b3b3b3"/><g fill="#fcee21"><path d="M44.775 38.974h7.326v3.704h-7.326zM58.897 38.974h7.326v3.704h-7.326zM73.018 38.974h7.326v3.704h-7.326zM87.14 38.974h7.326v3.704H87.14zM101.262 38.974h7.326v3.704h-7.326zM115.384 38.974h7.326v3.704h-7.326zM129.506 38.974h7.326v3.704h-7.326zM143.628 38.974h7.326v3.704h-7.326zM157.75 38.974h7.326v3.704h-7.326zM171.872 38.974h7.326v3.704h-7.326zM51.761 49.139h7.326v3.704h-7.326zM65.883 49.139h7.326v3.704h-7.326zM80.005 49.139h7.326v3.704h-7.326zM94.127 49.139h7.326v3.704h-7.326zM108.248 49.139h7.326v3.704h-7.326zM122.37 49.139h7.326v3.704h-7.326zM136.492 49.139h7.326v3.704h-7.326zM150.614 49.139h7.326v3.704h-7.326zM164.736 49.139h7.326v3.704h-7.326z"/></g></g><path d="M46.851 34.743h-.644v-4.107q-.233.222-.613.444-.376.222-.676.333v-.623q.54-.254.945-.616.404-.362.573-.702h.415zM48.602 33.53l.62-.057q.078.437.3.633.222.197.57.197.297 0 .519-.136.225-.136.369-.361.143-.23.24-.616t.096-.788l-.003-.129q-.194.308-.53.501-.333.19-.724.19-.651 0-1.102-.472-.452-.473-.452-1.247 0-.798.47-1.285.472-.487 1.181-.487.512 0 .935.276.426.275.644.787.222.509.222 1.476 0 1.006-.218 1.604-.219.594-.652.906-.43.311-1.01.311-.616 0-1.006-.34-.39-.344-.469-.963zm2.64-2.317q0-.555-.298-.88-.294-.326-.71-.326-.429 0-.747.35-.32.351-.32.91 0 .501.302.816.304.312.748.312.448 0 .734-.312.29-.315.29-.87zM60.978 34.833h-.644v-4.107q-.233.222-.612.444-.376.222-.677.333v-.623q.54-.254.945-.616.405-.362.573-.702h.415zM62.676 30.271v-.62h3.398v.502q-.501.533-.996 1.418-.49.884-.759 1.819-.193.659-.247 1.443h-.662q.01-.62.243-1.497.233-.877.666-1.69.437-.816.928-1.375zM75.08 34.743h-.644v-4.107q-.233.222-.612.444-.376.222-.677.333v-.623q.54-.254.945-.616.405-.362.573-.702h.416zM76.735 33.368l.677-.057q.075.494.347.744.276.248.662.248.466 0 .788-.351t.322-.931q0-.552-.311-.87-.308-.32-.81-.32-.31 0-.561.144-.251.14-.394.365l-.606-.078.509-2.697h2.61v.616h-2.094l-.283 1.41q.472-.329.992-.329.687 0 1.16.477.472.476.472 1.224 0 .713-.415 1.232-.505.637-1.379.637-.716 0-1.17-.4-.452-.402-.516-1.064zM89.222 34.74h-.644v-4.107q-.233.222-.613.444-.376.222-.676.333v-.623q.54-.254.945-.616.405-.362.573-.702h.415zM90.88 33.354l.645-.086q.11.548.376.791.268.24.651.24.455 0 .767-.315.315-.315.315-.78 0-.444-.29-.73-.29-.29-.738-.29-.183 0-.455.07l.072-.565q.064.007.104.007.411 0 .74-.215.33-.215.33-.662 0-.355-.24-.588-.24-.232-.619-.232-.376 0-.627.236t-.322.709l-.644-.115q.118-.648.537-1.002.419-.358 1.042-.358.43 0 .791.186.362.183.551.501.194.319.194.677 0 .34-.183.62-.182.279-.54.444.465.107.723.447.258.337.258.845 0 .688-.502 1.167-.501.477-1.267.477-.691 0-1.15-.412-.454-.412-.519-1.067zM103.611 34.833h-.645v-4.107q-.232.222-.612.444-.376.222-.677.333v-.623q.541-.254.946-.616.404-.362.573-.702h.415zM107.148 34.833h-.645v-4.107q-.232.222-.612.444-.376.222-.677.333v-.623q.541-.254.946-.616.404-.362.573-.702h.415zM117.418 33.53l.62-.057q.078.437.3.633.222.197.57.197.297 0 .519-.136.225-.136.369-.361.143-.23.24-.616.096-.387.096-.788 0-.043-.004-.129-.193.308-.53.501-.333.19-.723.19-.652 0-1.103-.472-.451-.473-.451-1.247 0-.798.469-1.285.473-.487 1.182-.487.512 0 .934.276.426.275.645.787.222.509.222 1.476 0 1.006-.219 1.604-.218.594-.651.906-.43.311-1.01.311-.616 0-1.006-.34-.39-.344-.47-.963zm2.639-2.317q0-.555-.297-.88-.294-.326-.71-.326-.429 0-.748.35-.318.351-.318.91 0 .501.3.816.305.312.749.312.448 0 .734-.312.29-.315.29-.87zM131.47 30.271v-.62h3.398v.502q-.501.533-.995 1.418-.49.884-.76 1.819-.193.659-.247 1.443h-.662q.01-.62.244-1.497.232-.877.666-1.69.436-.816.927-1.375zM145.551 33.368l.677-.057q.075.494.347.744.276.248.663.248.465 0 .787-.351.323-.351.323-.931 0-.552-.312-.87-.308-.32-.81-.32-.31 0-.561.144-.251.14-.394.365l-.605-.078.508-2.697h2.61v.616h-2.094l-.283 1.41q.472-.329.992-.329.687 0 1.16.477.472.476.472 1.224 0 .713-.415 1.232-.505.637-1.378.637-.717 0-1.171-.4-.452-.402-.516-1.064zM159.694 33.354l.645-.086q.11.548.376.791.268.24.651.24.455 0 .766-.315.316-.315.316-.78 0-.444-.29-.73-.29-.29-.738-.29-.183 0-.455.07l.072-.565q.064.007.104.007.411 0 .74-.215.33-.215.33-.662 0-.355-.24-.588-.24-.232-.62-.232-.375 0-.626.236t-.322.709l-.645-.115q.119-.648.538-1.002.418-.358 1.042-.358.43 0 .79.186.363.183.552.501.194.319.194.677 0 .34-.183.62-.183.279-.54.444.465.107.723.447.257.337.257.845 0 .688-.5 1.167-.502.477-1.268.477-.691 0-1.15-.412-.455-.412-.519-1.067zM175.989 34.833h-.645v-4.107q-.232.222-.612.444-.376.222-.677.333v-.623q.541-.254.946-.616.404-.362.573-.702h.415zM53.837 62.254h-.644v-4.107q-.233.222-.613.444-.376.222-.676.333V58.3q.54-.254.945-.616.405-.362.573-.702h.415zM56.483 59.407q-.4-.147-.594-.419-.193-.272-.193-.652 0-.573.412-.963.411-.39 1.095-.39.688 0 1.107.4.419.398.419.971 0 .365-.194.638-.19.268-.58.415.484.158.734.508.254.351.254.838 0 .674-.476 1.132-.476.458-1.253.458t-1.253-.458q-.477-.462-.477-1.15 0-.512.258-.855.262-.348.741-.473zm-.128-1.092q0 .372.24.609.24.236.623.236.372 0 .608-.233.24-.236.24-.576 0-.355-.247-.595-.243-.243-.609-.243-.368 0-.612.236-.243.236-.243.566zm-.208 2.424q0 .276.129.534.132.257.39.4.258.14.555.14.462 0 .763-.297.3-.297.3-.755 0-.466-.31-.77-.309-.305-.774-.305-.455 0-.756.301-.297.3-.297.752zM67.966 62.254h-.644v-4.107q-.233.222-.612.444-.376.222-.677.333V58.3q.54-.254.945-.616.405-.362.573-.702h.415zM72.965 58.29l-.64.05q-.087-.38-.244-.551-.262-.276-.645-.276-.308 0-.54.172-.305.222-.48.648t-.183 1.214q.233-.355.57-.527.336-.171.705-.171.644 0 1.095.476.455.472.455 1.224 0 .495-.215.92-.21.423-.583.649-.373.225-.845.225-.806 0-1.314-.59-.509-.595-.509-1.956 0-1.521.562-2.212.49-.602 1.322-.602.619 0 1.013.347.397.348.476.96zm-2.632 2.263q0 .333.14.637.143.305.397.466.255.157.534.157.408 0 .702-.329t.293-.895q0-.544-.29-.856-.29-.315-.73-.315-.437 0-.741.315-.305.312-.305.82zM82.097 62.254h-.644v-4.107q-.233.222-.613.444-.376.222-.676.333V58.3q.54-.254.945-.616.405-.362.573-.702h.415zM85.818 62.254v-1.257H83.54v-.59l2.396-3.402h.526v3.401h.71v.591h-.71v1.257zm0-1.848V58.04l-1.644 2.367zM96.235 62.254h-.644v-4.107q-.233.222-.613.444-.376.222-.676.333V58.3q.54-.254.945-.616.405-.362.573-.702h.415zM101.277 61.634v.62h-3.47q-.007-.233.075-.448.133-.355.423-.698.294-.344.845-.795.856-.702 1.157-1.11.3-.412.3-.777 0-.383-.275-.645-.272-.265-.713-.265-.465 0-.745.28t-.283.773l-.662-.068q.068-.741.512-1.128.444-.39 1.192-.39.756 0 1.196.419.44.419.44 1.038 0 .315-.128.62-.129.304-.43.64-.297.337-.992.924-.58.487-.744.663-.165.172-.273.347zM110.339 62.254h-.645v-4.107q-.232.222-.612.444-.376.222-.677.333V58.3q.541-.254.946-.616.404-.362.573-.702h.415zM111.994 59.665q0-.931.19-1.497.193-.57.57-.877.379-.308.952-.308.422 0 .74.172.32.168.527.49.208.32.326.781.118.458.118 1.239 0 .924-.19 1.493-.19.566-.569.877-.376.308-.952.308-.76 0-1.193-.544-.519-.655-.519-2.134zm.662 0q0 1.293.301 1.722.305.426.749.426t.744-.43q.305-.429.305-1.718 0-1.296-.305-1.722-.3-.426-.752-.426-.444 0-.709.376-.333.48-.333 1.772zM125.303 59.407q-.401-.147-.594-.419-.194-.272-.194-.652 0-.573.412-.963t1.096-.39q.687 0 1.106.4.42.398.42.971 0 .365-.194.638-.19.268-.58.415.483.158.734.508.254.351.254.838 0 .674-.476 1.132-.477.458-1.254.458t-1.253-.458q-.476-.462-.476-1.15 0-.512.258-.855.261-.348.741-.473zm-.129-1.092q0 .372.24.609t.623.236q.372 0 .609-.233.24-.236.24-.576 0-.355-.247-.595-.244-.243-.61-.243-.368 0-.611.236t-.244.566zm-.208 2.424q0 .276.13.534.132.257.39.4.257.14.555.14.462 0 .762-.297t.301-.755q0-.466-.311-.77-.308-.305-.774-.305-.455 0-.755.301-.298.3-.298.752zM141.795 58.29l-.641.05q-.086-.38-.243-.551-.262-.276-.645-.276-.308 0-.54.172-.305.222-.48.648-.176.426-.183 1.214.233-.355.57-.527.336-.171.705-.171.644 0 1.095.476.455.472.455 1.224 0 .495-.215.92-.211.423-.583.649-.373.225-.845.225-.806 0-1.315-.59-.508-.595-.508-1.956 0-1.521.562-2.212.49-.602 1.321-.602.62 0 1.014.347.397.348.476.96zm-2.632 2.263q0 .333.14.637.143.305.397.466.255.157.534.157.408 0 .702-.329.293-.33.293-.895 0-.544-.29-.856-.29-.315-.73-.315-.437 0-.741.315-.305.312-.305.82zM154.739 62.232v-1.257h-2.277v-.59l2.395-3.402h.527v3.401h.709v.591h-.71v1.257zm0-1.848v-2.367l-1.644 2.367zM170.134 61.634v.62h-3.47q-.007-.233.075-.448.133-.355.423-.698.294-.344.845-.795.856-.702 1.157-1.11.3-.412.3-.777 0-.383-.275-.645-.272-.265-.713-.265-.465 0-.745.28t-.283.773l-.662-.068q.068-.741.512-1.128.444-.39 1.192-.39.756 0 1.196.419.44.419.44 1.038 0 .315-.128.62-.129.304-.43.64-.297.337-.992.924-.58.487-.744.663-.165.172-.273.347z"/></svg>