<svg xmlns="http://www.w3.org/2000/svg" version="1.0" width="337.013" height="150" viewBox="-104.705 -0.5 337.013 150" xml:space="preserve"><path d="M214.679 120.819c0 8.604-6.98 15.579-15.584 15.579H-71.494c-8.614 0-15.584-6.976-15.584-15.579V28.183c0-8.609 6.97-15.584 15.584-15.584h270.589c8.604 0 15.584 6.975 15.584 15.584v92.636z" style="fill:#fff;stroke:#000;stroke-width:2.59739995"/><path d="M-1.134 31.124c-14.567 0-24.415 11.735-21.882 26.085l6.114 34.566c2.542 14.35 16.537 26.094 31.104 26.094H113.4c14.564 0 28.559-11.744 31.103-26.094l6.116-34.566c2.531-14.35-7.308-26.085-21.886-26.085H-1.134zM-57.976 61.373c7.251 0 13.128 5.877 13.128 13.128 0 7.243-5.877 13.125-13.128 13.125-7.25 0-13.127-5.882-13.127-13.125-.001-7.251 5.876-13.128 13.127-13.128zM185.58 61.373c7.249 0 13.126 5.877 13.126 13.128 0 7.243-5.877 13.125-13.126 13.125-7.247 0-13.124-5.882-13.124-13.125 0-7.251 5.877-13.128 13.124-13.128z" style="fill:none;stroke:#000;stroke-width:2.59739995"/><path d="M103.695 49.63a5.821 5.821 0 0 0-5.821 5.817 5.815 5.815 0 1 0 11.633 0c0-3.211-2.6-5.817-5.812-5.817zM80.893 49.63a5.818 5.818 0 0 0 0 11.636 5.82 5.82 0 0 0 5.823-5.819 5.82 5.82 0 0 0-5.823-5.817zM58.106 49.633a5.821 5.821 0 0 0-5.823 5.814 5.817 5.817 0 0 0 11.635 0 5.816 5.816 0 0 0-5.812-5.814zM35.304 49.63a5.812 5.812 0 0 0-5.811 5.817 5.813 5.813 0 0 0 5.811 5.819 5.822 5.822 0 0 0 5.821-5.819 5.82 5.82 0 0 0-5.821-5.817zM12.505 49.63a5.815 5.815 0 0 0-5.816 5.817c0 3.212 2.6 5.819 5.816 5.819a5.817 5.817 0 0 0 5.819-5.819c0-3.211-2.6-5.817-5.819-5.817zM92.289 68.681a5.817 5.817 0 0 0 0 11.632c3.214 0 5.826-2.605 5.826-5.812a5.826 5.826 0 0 0-5.826-5.82zM69.501 68.682a5.819 5.819 0 0 0-5.819 5.819 5.817 5.817 0 0 0 5.819 5.81 5.815 5.815 0 0 0 0-11.629zM115.093 68.681a5.817 5.817 0 0 1 5.818 5.817c0 3.208-2.605 5.805-5.818 5.805a5.808 5.808 0 0 1-5.812-5.805 5.814 5.814 0 0 1 5.812-5.817zM46.703 68.681a5.822 5.822 0 0 0-5.816 5.82 5.82 5.82 0 0 0 5.816 5.812 5.82 5.82 0 0 0 5.819-5.812 5.822 5.822 0 0 0-5.819-5.82zM23.907 68.681a5.822 5.822 0 0 0-5.822 5.82c0 3.207 2.608 5.812 5.822 5.812 3.213 0 5.824-2.605 5.824-5.812 0-3.214-2.61-5.82-5.824-5.82zM103.695 99.362a5.823 5.823 0 0 1-5.821-5.821 5.815 5.815 0 1 1 11.633 0c0 3.214-2.6 5.821-5.812 5.821zM80.893 99.362a5.818 5.818 0 0 1-5.816-5.821 5.82 5.82 0 0 1 11.639 0 5.821 5.821 0 0 1-5.823 5.821zM58.106 99.36a5.823 5.823 0 0 1-5.823-5.819 5.824 5.824 0 0 1 5.823-5.816 5.818 5.818 0 0 1 0 11.635zM35.304 99.362a5.814 5.814 0 0 1-5.811-5.821 5.813 5.813 0 0 1 5.811-5.816 5.822 5.822 0 0 1 5.821 5.816 5.822 5.822 0 0 1-5.821 5.821zM12.505 99.362a5.817 5.817 0 0 1-5.816-5.821c0-3.208 2.6-5.816 5.816-5.816a5.817 5.817 0 0 1 5.819 5.816c0 3.214-2.6 5.821-5.819 5.821z" style="fill:none;stroke:#000;stroke-width:2.59739995"/><path d="M103.973 57.629h.604v-4.607h-.533l-1.007.54.119.476.805-.433h.013v4.024h-.001zM82.444 57.573v-.516h-2.06v-.016l.36-.341c.969-.936 1.588-1.624 1.588-2.471 0-.66-.418-1.341-1.402-1.341a2.04 2.04 0 0 0-1.304.467l.195.44c.215-.176.562-.39.979-.39.688 0 .908.433.908.9 0 .693-.54 1.288-1.715 2.406l-.486.474v.386h2.937v.002zM56.71 57.395c.229.149.683.312 1.2.312 1.096 0 1.675-.646 1.675-1.38 0-.644-.457-1.07-1.026-1.177v-.017c.562-.206.851-.607.851-1.087 0-.561-.41-1.101-1.316-1.101-.497 0-.965.179-1.212.355l.171.452c.195-.141.554-.303.922-.303.572 0 .804.326.804.692 0 .546-.573.781-1.027.781h-.344v.467h.344c.603 0 1.185.276 1.192.92.005.391-.247.894-1.042.894-.438 0-.843-.178-1.02-.286l-.172.478zM36.356 57.629v-1.254h.646v-.484h-.646v-2.869h-.672l-2.056 2.95v.403h2.142v1.254h.586zm-2.095-1.738v-.013l1.124-1.567c.129-.218.242-.415.386-.686h.019c-.014.241-.019.479-.019.723v1.543h-1.51zM13.822 53.082h-2.204l-.298 2.195c.171-.028.377-.049.646-.049.914 0 1.319.417 1.319 1.027.005.62-.503 1.006-1.086 1.006-.425 0-.801-.144-.989-.258l-.16.476c.227.142.647.283 1.149.283 1 0 1.719-.673 1.719-1.571 0-.596-.303-.999-.664-1.199a1.94 1.94 0 0 0-.992-.25c-.167 0-.271.017-.373.031l.175-1.169h1.758v-.522zM116.401 72.188a3.45 3.45 0 0 0-.454.034c-.584.073-1.091.309-1.474.681-.459.464-.779 1.179-.779 2.086 0 1.193.645 1.959 1.621 1.959.964 0 1.537-.777 1.537-1.625 0-.895-.573-1.49-1.388-1.49-.51 0-.902.239-1.121.539h-.013c.106-.766.617-1.48 1.604-1.636.175-.029.337-.043.467-.038v-.51zm-1.078 4.276c-.654 0-1.005-.564-1.012-1.322 0-.112.027-.197.062-.27.171-.338.523-.565.898-.565.573 0 .946.397.946 1.054 0 .658-.357 1.104-.888 1.104h-.006v-.001zM90.987 72.422v.518h2.253v.014l-1.991 4.071h.64l2.006-4.192v-.41h-2.908v-.001zM69.647 72.188c-.806 0-1.42.497-1.42 1.229 0 .395.216.793.735 1.033v.02c-.562.241-.908.66-.908 1.242 0 .671.581 1.236 1.548 1.236.875 0 1.56-.529 1.56-1.339 0-.552-.35-.963-.923-1.19v-.021c.565-.26.766-.684.766-1.072 0-.584-.459-1.137-1.35-1.137h-.008v-.001zm-.035 4.306c-.581 0-.934-.41-.916-.869 0-.44.297-.801.832-.958.624.178 1.015.454 1.015 1.006 0 .476-.359.821-.92.821h-.011zm.031-3.861c.554 0 .771.386.771.753 0 .416-.305.704-.703.836-.529-.141-.885-.39-.877-.849 0-.397.284-.74.799-.74h.01zM45.625 76.944c.141.011.349-.005.576-.036a2.317 2.317 0 0 0 1.334-.614c.454-.446.799-1.152.799-2.163 0-1.185-.583-1.943-1.527-1.943-.941 0-1.58.766-1.58 1.63 0 .794.53 1.417 1.365 1.417.464 0 .832-.185 1.085-.495h.021c-.079.544-.302.946-.609 1.224a1.657 1.657 0 0 1-.961.445c-.21.03-.37.034-.502.03v.505h-.001zm1.131-4.281c.657 0 .949.595.941 1.387a.545.545 0 0 1-.046.228c-.172.278-.497.483-.918.483-.533 0-.887-.407-.887-.98 0-.65.379-1.117.907-1.117h.003v-.001zM21.738 76.87h.604v-4.605h-.533l-1.005.539.12.476.802-.433h.013v4.023h-.001zM25.492 76.947c1.007 0 1.596-.863 1.596-2.432 0-1.463-.561-2.328-1.522-2.328-.938 0-1.611.845-1.611 2.392.018 1.526.629 2.368 1.532 2.368h.005zm.013-.483c-.576 0-.938-.719-.924-1.917 0-1.153.369-1.875.935-1.875.649 0 .936.744.936 1.875 0 1.178-.31 1.917-.936 1.917h-.011zM102.156 95.626h.604v-4.601h-.53l-1.007.535.119.477.802-.434h.013v4.023h-.001zM105.793 95.626h.602v-4.601h-.53l-1.01.535.12.477.804-.434h.015v4.023h-.001zM78.833 95.573h.604v-4.609h-.53l-1.007.541.119.474.802-.434h.013v4.028h-.001zM84.053 95.573v-.521h-2.06v-.02l.36-.335c.974-.934 1.59-1.624 1.59-2.471 0-.66-.421-1.342-1.405-1.342-.529 0-.991.205-1.304.469l.198.441c.213-.183.561-.391.977-.391.69 0 .908.434.908.898 0 .694-.54 1.291-1.712 2.412l-.487.469v.389h2.935v.002zM56.045 95.626h.606v-4.601h-.533l-1.007.535.122.474.802-.431h.01v4.023zM58.306 95.391c.227.152.681.312 1.198.312 1.096 0 1.679-.646 1.679-1.375 0-.648-.461-1.07-1.03-1.179v-.013c.563-.206.85-.611.85-1.091 0-.563-.414-1.101-1.317-1.101-.495 0-.961.177-1.209.353l.168.456a1.68 1.68 0 0 1 .921-.305c.573 0 .807.325.807.692 0 .546-.573.779-1.027.779H59v.469h.346c.603 0 1.183.277 1.191.921.007.389-.249.894-1.04.894-.441 0-.843-.181-1.02-.282l-.171.47zM33.069 95.626h.601v-4.601h-.533l-1.008.535.123.477.802-.434h.015v4.023zM37.86 95.626v-1.253h.647v-.479h-.647v-2.868h-.667L35.14 93.97v.403h2.134v1.253h.586zm-2.092-1.732v-.02l1.126-1.561c.127-.218.238-.421.38-.689h.023a10.25 10.25 0 0 0-.023.723v1.547h-1.506zM10.389 95.682h.606v-4.601h-.539l-.999.54.12.475.799-.439h.013v4.025zM15.417 91.081h-2.205l-.297 2.196c.167-.033.375-.053.643-.053.917 0 1.318.421 1.318 1.027.01.626-.5 1.007-1.079 1.007-.425 0-.803-.143-.996-.257l-.155.475c.226.143.644.289 1.15.289.993 0 1.711-.677 1.711-1.577 0-.597-.293-.997-.655-1.195a1.96 1.96 0 0 0-.994-.248c-.172 0-.268.013-.378.027l.178-1.172h1.758v-.519h.001z"/></svg>