<svg xmlns="http://www.w3.org/2000/svg" width="540" height="320" version="1.0"><path transform="matrix(3 0 0 3 -100.5 -129.622)" d="M208 103a41 41 0 1 1-82 0 41 41 0 1 1 82 0z" style="fill:#a0a0a0;fill-opacity:1;stroke:gray;stroke-width:1;stroke-linecap:round;stroke-linejoin:round;stroke-miterlimit:4;stroke-dasharray:none;stroke-opacity:1"/><path d="M413 158.244c23.315 0 44.944 7.203 62.813 19.5h9.687c7 0 13 6 13 13v7.719c15.94 19.219 25.5 43.88 25.5 70.781 0 61.272-49.728 111-111 111s-111-49.728-111-111 49.728-111 111-111z" style="fill:#202020;fill-opacity:1;stroke:gray;stroke-width:3;stroke-linecap:round;stroke-linejoin:round;stroke-miterlimit:4;stroke-dasharray:none;stroke-opacity:1" transform="translate(-12.5 -89.866)"/><path d="M140 158.244c61.272 0 111 49.728 111 111s-49.728 111-111 111-111-49.728-111-111c0-28.508 10.816-54.492 28.5-74.156v-8.25c0-3.358 2.323-6.094 5.156-6.094h10.407c18.62-14.12 41.783-22.5 66.937-22.5z" style="fill:#a0a0a0;fill-opacity:1;stroke:gray;stroke-width:3;stroke-linecap:round;stroke-linejoin:round;stroke-miterlimit:4;stroke-dasharray:none;stroke-opacity:1" transform="translate(-12.5 -89.866)"/><path transform="matrix(3 0 0 3 -100.5 -129.622)" d="M197 103a30 30 0 1 1-60 0 30 30 0 1 1 60 0z" style="fill:#101010;fill-opacity:1;stroke:#000;stroke-width:1;stroke-linecap:round;stroke-linejoin:round;stroke-miterlimit:4;stroke-dasharray:none;stroke-opacity:1"/><path d="M76.344 205.681c-35.13 35.13-35.13 92.184 0 127.313 35.129 35.13 92.183 35.13 127.312 0 35.13-35.13 35.13-92.183 0-127.313H76.344z" style="fill:#3080b0;fill-opacity:1;stroke:#000;stroke-width:3;stroke-linecap:round;stroke-linejoin:round;stroke-miterlimit:4;stroke-dasharray:none;stroke-opacity:1" transform="translate(-12.5 -89.866)"/><path style="fill:#000;fill-opacity:1;stroke:#202020;stroke-width:1;stroke-linecap:round;stroke-linejoin:round;stroke-miterlimit:4;stroke-dasharray:none;stroke-opacity:1" d="M-20.5 157.5a7 7 0 1 1-14 0 7 7 0 1 1 14 0z" transform="matrix(3 0 0 3 153 -287.122)"/><path d="M-20.5 157.5a7 7 0 1 1-14 0 7 7 0 1 1 14 0z" style="fill:#000;fill-opacity:1;stroke:#202020;stroke-width:1;stroke-linecap:round;stroke-linejoin:round;stroke-miterlimit:4;stroke-dasharray:none;stroke-opacity:1" transform="matrix(3 0 0 3 267 -287.122)"/><path d="M-20.5 157.5a7 7 0 1 1-14 0 7 7 0 1 1 14 0z" style="fill:#000;fill-opacity:1;stroke:#202020;stroke-width:1;stroke-linecap:round;stroke-linejoin:round;stroke-miterlimit:4;stroke-dasharray:none;stroke-opacity:1" transform="matrix(3 0 0 3 210 -236.122)"/><path transform="matrix(3 0 0 3 -67.5 -129.622)" style="fill:#101010;fill-opacity:1;stroke:#a0a0a0;stroke-width:1;stroke-linecap:round;stroke-linejoin:round;stroke-miterlimit:4;stroke-dasharray:none;stroke-opacity:1" d="M52 105a6 6 0 1 1-12 0 6 6 0 1 1 12 0z"/><path transform="matrix(3 0 0 3 46.5 -129.622)" d="M52 105a6 6 0 1 1-12 0 6 6 0 1 1 12 0z" style="fill:#101010;fill-opacity:1;stroke:#a0a0a0;stroke-width:1;stroke-linecap:round;stroke-linejoin:round;stroke-miterlimit:4;stroke-dasharray:none;stroke-opacity:1"/><path style="fill:#101010;fill-opacity:1;stroke:#a0a0a0;stroke-width:1;stroke-linecap:round;stroke-linejoin:round;stroke-miterlimit:4;stroke-dasharray:none;stroke-opacity:1" d="M52 105a6 6 0 1 1-12 0 6 6 0 1 1 12 0z" transform="matrix(3 0 0 3 -10.5 -78.622)"/><text xml:space="preserve" style="font-size:36px;font-style:normal;font-variant:normal;font-weight:400;font-stretch:normal;text-align:start;line-height:125%;writing-mode:lr-tb;text-anchor:start;fill:#000;fill-opacity:1;stroke:none;stroke-width:1px;stroke-linecap:butt;stroke-linejoin:miter;stroke-opacity:1;font-family:Nimbus Sans L" x="185.984" y="248.244" transform="translate(-12.5 -89.866)"><tspan x="185.984" y="248.244" style="font-size:36px;font-style:normal;font-variant:normal;font-weight:400;font-stretch:normal;text-align:start;line-height:125%;writing-mode:lr-tb;text-anchor:start;font-family:Nimbus Sans L">1</tspan></text><text xml:space="preserve" style="font-size:36px;font-style:normal;font-variant:normal;font-weight:400;font-stretch:normal;text-align:start;line-height:125%;writing-mode:lr-tb;text-anchor:start;fill:#000;fill-opacity:1;stroke:none;stroke-width:1px;stroke-linecap:butt;stroke-linejoin:miter;stroke-opacity:1;font-family:Nimbus Sans L" x="74" y="248.244" transform="translate(-12.5 -89.866)"><tspan x="74" y="248.244">2</tspan></text><text y="299.244" x="130.208" style="font-size:36px;font-style:normal;font-variant:normal;font-weight:400;font-stretch:normal;text-align:start;line-height:125%;writing-mode:lr-tb;text-anchor:start;fill:#000;fill-opacity:1;stroke:none;stroke-width:1px;stroke-linecap:butt;stroke-linejoin:miter;stroke-opacity:1;font-family:Nimbus Sans L" xml:space="preserve" transform="translate(-12.5 -89.866)"><tspan y="299.244" x="130.208">3</tspan></text><text y="248.244" x="346.328" style="font-size:36px;font-style:normal;font-variant:normal;font-weight:400;font-stretch:normal;text-align:start;line-height:125%;writing-mode:lr-tb;text-anchor:start;fill:#d0d0d0;fill-opacity:.94117647;stroke:none;stroke-width:1px;stroke-linecap:butt;stroke-linejoin:miter;stroke-opacity:1;font-family:Nimbus Sans L" xml:space="preserve" transform="translate(-12.5 -89.866)"><tspan y="248.244" x="346.328">1</tspan></text><text xml:space="preserve" style="font-size:36px;font-style:normal;font-variant:normal;font-weight:400;font-stretch:normal;text-align:start;line-height:125%;writing-mode:lr-tb;text-anchor:start;fill:#d0d0d0;fill-opacity:.94117647;stroke:none;stroke-width:1px;stroke-linecap:butt;stroke-linejoin:miter;stroke-opacity:1;font-family:Nimbus Sans L" x="459.596" y="248.244" transform="translate(-12.5 -89.866)"><tspan x="459.596" y="248.244">2</tspan></text><text y="299.244" x="404" style="font-size:36px;font-style:normal;font-variant:normal;font-weight:400;font-stretch:normal;text-align:start;line-height:125%;writing-mode:lr-tb;text-anchor:start;fill:#d0d0d0;fill-opacity:.94117647;stroke:none;stroke-width:1px;stroke-linecap:butt;stroke-linejoin:miter;stroke-opacity:1;font-family:Nimbus Sans L" xml:space="preserve" transform="translate(-12.5 -89.866)"><tspan y="299.244" x="404">3</tspan></text><text y="133.744" x="76.834" style="font-size:36px;font-style:normal;font-variant:normal;font-weight:400;font-stretch:normal;text-align:start;line-height:125%;writing-mode:lr-tb;text-anchor:start;fill:#000;fill-opacity:1;stroke:none;stroke-width:1px;stroke-linecap:butt;stroke-linejoin:miter;stroke-opacity:1;font-family:Nimbus Sans L" xml:space="preserve" transform="translate(-12.5 -89.866)"><tspan y="133.744" x="76.834">Female</tspan></text><text xml:space="preserve" style="font-size:36px;font-style:normal;font-variant:normal;font-weight:400;font-stretch:normal;text-align:start;line-height:125%;writing-mode:lr-tb;text-anchor:start;fill:#000;fill-opacity:1;stroke:none;stroke-width:1px;stroke-linecap:butt;stroke-linejoin:miter;stroke-opacity:1;font-family:Nimbus Sans L" x="371.127" y="133.744" transform="translate(-12.5 -89.866)"><tspan x="371.127" y="133.744">Male</tspan></text><path transform="matrix(-3 0 0 3 261 -287.122)" d="M-21.5 157.5a6 6 0 1 1-12 0 6 6 0 1 1 12 0z" style="fill:#b0b0b0;fill-opacity:1;stroke:#505050;stroke-width:1;stroke-linecap:round;stroke-linejoin:round;stroke-miterlimit:4;stroke-dasharray:none;stroke-opacity:1"/><path style="fill:#b0b0b0;fill-opacity:1;stroke:#505050;stroke-width:1;stroke-linecap:round;stroke-linejoin:round;stroke-miterlimit:4;stroke-dasharray:none;stroke-opacity:1" d="M-21.5 157.5a6 6 0 1 1-12 0 6 6 0 1 1 12 0z" transform="matrix(-3 0 0 3 375 -287.122)"/><path transform="matrix(-3 0 0 3 318 -236.122)" d="M-21.5 157.5a6 6 0 1 1-12 0 6 6 0 1 1 12 0z" style="fill:#b0b0b0;fill-opacity:1;stroke:#505050;stroke-width:1;stroke-linecap:round;stroke-linejoin:round;stroke-miterlimit:4;stroke-dasharray:none;stroke-opacity:1"/></svg>