<?xml version="1.0" encoding="UTF-8"?>
<svg xmlns="http://www.w3.org/2000/svg" viewBox="0 0 208 59" fill="#043144">
  <path d="M162.104 25.5507C162.104 26.1436 161.985 27.49 161.748 28.9939L160.049 40.75H154.911L156.531 29.7458C156.689 28.5985 156.807 27.5287 156.807 26.8569C156.807 25.0752 156.017 24.3633 153.962 24.3633C152.776 24.3633 151.155 24.6397 149.772 25.0365L147.52 40.7514H142.382L145.228 20.5635H148.667L149.377 22.3853C151.631 21.079 154.437 20.1681 156.294 20.1681C160.168 20.1681 162.102 21.9899 162.102 25.552M180.15 20.8814L179.597 24.7213C177.582 24.5236 175.171 24.3647 173.787 24.3647C170.231 24.3647 169.203 25.7898 168.53 30.936C168.333 32.2021 168.254 33.1531 168.254 33.905C168.254 36.042 169.321 36.9529 171.929 36.9529C173.471 36.9529 175.843 36.7954 177.818 36.5963L177.779 40.4749C175.606 40.8717 172.8 41.1481 171.021 41.1481C165.449 41.1481 162.841 38.971 162.841 34.3792C162.841 33.113 162.959 31.7667 163.157 30.3817C164.183 22.8608 166.832 20.1681 173.352 20.1681C175.131 20.1681 178.015 20.4847 180.149 20.8814M186.887 40.7528H184.279L180.88 20.5648H186.215L188.469 37.1506L186.887 40.7528ZM22.1815 13.478L21.7467 17.4368C19.1385 17.3179 16.965 17.2391 15.3435 17.2391C9.65243 17.2391 7.91363 19.3775 6.80687 27.3725C6.56951 29.1141 6.41081 30.618 6.41081 31.8455C6.41081 35.5264 8.07095 36.9516 12.1806 36.9516C13.9594 36.9516 16.2116 36.8728 18.7797 36.7539L18.5824 40.7915C16.2516 41.0292 13.366 41.1481 11.5485 41.1481C4.55333 41.1481 0.99707 38.179 0.99707 32.321C0.99707 30.777 1.15577 28.9566 1.47179 26.8196C2.85455 16.3697 6.01613 13.0439 14.9475 13.0439C17.0823 13.0439 19.8879 13.2416 22.1801 13.4794"></path>
  <path d="M25.1583 33.1505C25.1583 35.8418 26.2251 37.2282 28.7546 37.2282C32.3909 37.2282 34.0497 32.5962 34.0497 28.0845C34.0497 25.3932 33.023 24.0856 30.4934 24.0856C26.8571 24.0856 25.1583 28.6374 25.1583 33.1505ZM39.3848 27.3312C39.3848 36.0394 35.6298 41.1455 28.5173 41.1455C22.7075 41.1455 19.8633 38.533 19.8633 33.6246C19.8633 24.9564 23.6183 20.1655 30.7308 20.1655C36.5406 20.1655 39.3848 22.6204 39.3848 27.3298M58.8593 25.5494C58.8593 26.1424 58.7406 27.4888 58.5047 28.9927L56.8059 40.7488H51.6681L53.2896 29.7446C53.447 28.5973 53.5656 27.5275 53.5656 26.8557C53.5656 25.0739 52.7763 24.3621 50.7201 24.3621C49.5347 24.3621 47.9145 24.6385 46.5318 25.0352L44.2782 40.7502H39.1405L41.9861 20.5622H45.4236L46.1357 22.3841C48.3879 21.0778 51.1934 20.1669 53.0509 20.1669C56.9232 20.1669 58.8593 21.9887 58.8593 25.5508M76.9539 20.8802L76.4005 24.7201C74.3857 24.5224 71.9748 24.3635 70.5907 24.3635C67.0344 24.3635 66.0063 25.7886 65.3343 30.9347C65.1369 32.2009 65.0583 33.1519 65.0583 33.9038C65.0583 36.0408 66.125 36.9517 68.7332 36.9517C70.2747 36.9517 72.6469 36.7941 74.6217 36.5951L74.5817 40.4737C72.4082 40.8704 69.6026 41.1469 67.8238 41.1469C62.2514 41.1469 59.6432 38.9698 59.6432 34.378C59.6432 33.1118 59.7618 31.7655 59.9592 30.3804C60.9873 22.8596 63.6341 20.1669 70.156 20.1669C71.9334 20.1669 74.819 20.4834 76.9525 20.8802M93.4283 40.7516H90.0694L89.3587 39.05C86.9078 40.3963 84.4583 41.1483 82.5222 41.1483C78.6885 41.1483 76.6737 39.2877 76.7124 35.8832C76.7124 35.1313 76.8311 34.1416 76.9884 32.8754L78.7272 20.5636H83.8649L82.2048 32.5575C82.0475 33.5472 82.0074 34.1402 81.9688 34.6959C81.9288 36.3573 82.7195 36.9517 84.7743 36.9517C85.9998 36.9517 87.6199 36.6753 89.004 36.3186L91.1375 20.5636H96.2739L93.4283 40.7516ZM110.88 20.5249L110.286 24.9979C109.614 24.9191 109.061 24.879 108.588 24.879C106.255 24.879 104.279 25.2744 102.856 26.0263L100.842 40.7516H95.7039L98.5495 20.5636H101.908L102.739 23.1374C104.635 21.1981 106.81 20.1683 108.746 20.1683C109.616 20.1683 110.405 20.366 110.88 20.5249ZM137.056 28.9277L137.409 26.4617C137.409 24.879 136.302 23.9681 134.563 23.9681C131.955 23.9681 130.532 25.4319 129.742 28.7577L129.558 29.7211L137.056 28.9277ZM129.228 31.7268C129.19 32.241 129.15 32.7552 129.15 33.2307C129.15 35.9219 130.494 37.0706 133.497 37.0706C135.63 37.0706 138.2 36.8729 140.372 36.5163L140.333 40.1973C137.962 40.7903 134.958 41.1469 132.865 41.1469C126.779 41.1469 123.775 38.5731 123.775 33.5472C123.775 32.7151 123.815 31.8443 123.972 30.4993C124.841 23.8893 128.476 20.1683 134.761 20.1683C139.7 20.1683 142.926 22.9121 142.467 26.1853C142.007 29.4585 141.564 32.1967 141.564 32.1967L128.536 33.7559M124.967 20.5249L124.373 24.9979C123.701 24.9191 123.149 24.879 122.675 24.879C120.342 24.879 118.368 25.2744 116.944 26.0263L114.929 40.7516H109.792L112.638 20.5636H115.997L116.828 23.1374C118.724 21.1981 120.899 20.1683 122.835 20.1683C123.704 20.1683 124.495 20.366 124.97 20.5249"></path>
  <path fill="#0c9ad6" d="M207.776 12.621C207.71 12.3625 207.642 12.1026 207.573 11.8386L207.446 11.3756L207.277 10.9111L206.919 9.9698C206.795 9.65326 206.624 9.34639 206.472 9.03124C206.177 8.39402 205.777 7.78997 205.371 7.17348C205.027 6.69107 204.648 6.21695 204.245 5.7539C198.395 -0.115191 186.041 -1.66609 169.559 2.58437C159.948 5.06276 150.16 9.19849 141.07 14.3474L144.67 14.0903C150.321 11.3175 156.168 9.03124 161.964 7.40985C166.746 5.78845 171.467 4.58312 176.013 3.88369C177.431 3.65424 178.835 3.4704 180.215 3.34323C183.252 3.06125 186.189 3.07092 188.935 3.38884C190.312 3.5326 191.629 3.80767 192.89 4.12421C193.508 4.32049 194.136 4.46839 194.715 4.7089C195.007 4.82087 195.302 4.92592 195.588 5.04203L196.419 5.42768C196.699 5.54656 196.958 5.69446 197.215 5.84374C197.47 5.99303 197.734 6.12849 197.977 6.28607C198.45 6.62057 198.94 6.91914 199.351 7.29512C200.228 7.98901 200.925 8.80593 201.515 9.63114C202.662 11.3175 203.231 13.1379 203.421 14.8077C203.616 16.4844 203.462 18.0049 203.258 19.307C203.135 19.9566 203.029 20.5607 202.869 21.1012L202.663 21.8794C202.596 22.1254 202.509 22.3535 202.438 22.5719C202.289 23.0059 202.173 23.3943 202.044 23.7219C201.913 24.0481 201.802 24.3218 201.714 24.543L201.445 25.212L201.314 25.4912L201.138 25.8672C200.936 26.2998 200.647 26.9467 200.2 27.7595C199.336 29.3975 197.937 31.746 195.817 34.5174C194.773 35.9121 193.518 37.3897 192.111 38.9614C190.69 40.5233 189.08 42.1489 187.3 43.8297C183.712 47.1596 179.409 50.6747 174.383 54.0695C172.279 55.4974 170.043 56.9087 167.698 58.2854C170.823 57.8127 166.705 58.671 169.178 58.0532C178.909 53.4627 195.875 43.7689 204.816 26.9163C205.138 26.3095 205.41 25.6889 205.677 25.0793C207.749 20.3299 208.389 16.1416 207.776 12.6182"></path>
  <path d="M203.425 14.8118C203.233 13.142 202.666 11.3216 201.519 9.63524C200.929 8.80865 200.232 7.99173 199.356 7.29783C198.944 6.92186 198.455 6.62329 197.981 6.28878C197.738 6.1312 197.475 5.99712 197.219 5.84646C196.963 5.69717 196.703 5.55065 196.423 5.4304L195.592 5.04474C195.307 4.92863 195.013 4.82358 194.719 4.71162C194.139 4.46972 193.511 4.3232 192.894 4.12692C191.632 3.81038 190.315 3.53531 188.938 3.39156C186.192 3.07364 183.255 3.06396 180.218 3.34594C178.836 3.47449 177.434 3.65695 176.014 3.88641C171.997 4.53745 167.316 5.43731 163.253 6.98544C174.749 3.93202 184.737 4.261 190.597 7.25084C191.141 7.52729 191.652 7.82862 192.134 8.15069C197.573 11.786 199.074 18.2578 195.362 26.7781C194.875 27.8949 193.199 31.0783 192.837 31.5648C186.806 41.3678 175.512 51.3588 162.428 58.9986C164.232 58.7816 165.986 58.5466 167.669 58.2936C167.679 58.2923 167.69 58.2909 167.7 58.2895C170.046 56.9128 172.28 55.5015 174.385 54.075C179.409 50.6801 183.713 47.1664 187.301 43.8352C189.082 42.1543 190.692 40.5288 192.112 38.9668C193.52 37.3952 194.774 35.919 195.819 34.5229C197.938 31.7514 199.339 29.4016 200.202 27.765C200.649 26.9522 200.937 26.3053 201.14 25.8727C201.21 25.7206 201.268 25.5962 201.315 25.4967L201.446 25.2175L201.715 24.5485C201.805 24.3273 201.916 24.0536 202.047 23.7274C202.178 23.3998 202.292 23.0128 202.443 22.5774C202.513 22.359 202.6 22.1309 202.668 21.8848L202.873 21.1066C203.035 20.5662 203.14 19.9621 203.262 19.3125C203.468 18.0117 203.62 16.4899 203.425 14.8132"></path>
</svg>
